<svg xmlns="http://www.w3.org/2000/svg" xmlns:xlink="http://www.w3.org/1999/xlink" aria-hidden="true" role="img" class="iconify iconify--ph" width="1em" height="1em" preserveAspectRatio="xMidYMid meet" viewBox="0 0 256 256"><path d="M229.9 70.8a.1.1 0 0 1-.1-.1a16.2 16.2 0 0 0-6-5.9l-88-49.5a16 16 0 0 0-15.6 0l-88 49.5a16.2 16.2 0 0 0-6 5.9a.1.1 0 0 1-.1.1v.2a15 15 0 0 0-2.1 7.7v98.6a16.1 16.1 0 0 0 8.2 14l88 49.5a16.5 16.5 0 0 0 7.2 2h1.4a16.1 16.1 0 0 0 7-2l88-49.5a16.1 16.1 0 0 0 8.2-14V78.7a15.6 15.6 0 0 0-2.1-7.9zm-101 48L48.4 74L128 29.2L207.7 74zm87.1 58.5l-79.9 45l.8-89.6l79.1-45z" fill="#7aa2f7"></path></svg>